<svg id="visual" viewBox="0 0 960 540" width="960" height="540" xmlns="http://www.w3.org/2000/svg" xmlns:xlink="http://www.w3.org/1999/xlink" version="1.1"><g transform="translate(479.95 269.95)"><path d="M96.5 -167.1C125.6 -150.3 150.3 -125.6 167.1 -96.5C184 -67.3 193 -33.7 193.1 0C193.1 33.7 184.2 67.5 167.5 96.7C150.7 126 126 150.7 96.7 167.5C67.5 184.3 33.8 193.1 0 193.1C-33.7 193 -67.3 184 -96.5 167.1C-125.6 150.3 -150.3 125.6 -167.1 96.5C-184 67.3 -193 33.7 -193 0C-193 -33.7 -184 -67.3 -167.1 -96.5C-150.3 -125.6 -125.6 -150.3 -96.5 -167.1C-67.3 -184 -33.7 -193 0 -193C33.7 -193 67.3 -184 96.5 -167.1" fill="#F64C72"></path></g></svg>